<?xml version="1.0" encoding="utf-8"?>
<svg xmlns="http://www.w3.org/2000/svg" width="800" height="800" viewBox="0 0 800 800" role="img" aria-label="Monitor icon">
  <path fill="#FFFFFF" fill-rule="evenodd" d="M 15.81 102.914 C 15.81 90.888 22.214 84.875 35.024 84.875 L 765.158 84.875 C 777.968 84.875 784.372 90.888 784.372 102.914 L 784.372 576.426 C 784.372 588.451 777.968 594.465 765.158 594.465 L 499.364 594.465 L 520.179 683.154 L 598.636 683.154 L 598.636 714.722 L 201.546 714.722 L 201.546 683.154 L 280.004 683.154 L 300.818 594.465 L 35.024 594.465 C 22.214 594.465 15.81 588.451 15.81 576.426 L 15.81 102.914 Z M 47.834 116.443 L 47.834 546.361 L 752.35 546.361 L 752.35 116.443 L 47.834 116.443 Z" style=""/>
  <rect x="47.834" y="116.443" width="704.516" height="429.919" rx="5" ry="5" fill="#3DAEE9" style=""/>
</svg>