<?xml version="1.0" encoding="utf-8"?>
<svg width="24" height="24" viewBox="0 0 24 24" fill="none" xmlns="http://www.w3.org/2000/svg">
  <path d="M3 3L21 21" stroke="#94a3b8" stroke-width="1.8" stroke-linecap="round"/>
  <path d="M10.6 5.7C11.1 5.6 11.5 5.5 12 5.5C16 5.5 19.3 7.8 21.5 12C20.8 13.3 20 14.4 19 15.3M14.8 18C13.9 18.3 13 18.5 12 18.5C8 18.5 4.7 16.2 2.5 12C3.4 10.3 4.5 8.9 5.8 7.9" stroke="#94a3b8" stroke-width="1.8" stroke-linecap="round" stroke-linejoin="round"/>
  <path d="M9.9 9.9C9.3 11 9.5 12.4 10.4 13.3C11.3 14.2 12.7 14.4 13.8 13.8" stroke="#94a3b8" stroke-width="1.8" stroke-linecap="round"/>
</svg>
