<?xml version="1.0" encoding="UTF-8"?>
<svg version="1.1" xmlns="http://www.w3.org/2000/svg" width="500" height="649">
<path d="M0 0 C0.33 0 0.66 0 1 0 C1.18577435 13.36969798 1.32771762 26.73908638 1.41449738 40.10981464 C1.4561585 46.31919929 1.51262259 52.52769764 1.60351562 58.73657227 C1.69076276 64.73427666 1.73834233 70.73113135 1.75901794 76.72942162 C1.77374225 79.0119482 1.80249613 81.2944309 1.84584045 83.5765934 C2.24039171 105.22125297 2.24039171 105.22125297 -4.90400696 112.8968811 C-5.59568466 113.59091034 -6.28736237 114.28493958 -7 115 C-8.30572035 116.80217353 -9.5840799 118.62474103 -10.82421875 120.47265625 C-11.45376465 121.38281494 -12.08331055 122.29297363 -12.73193359 123.23071289 C-13.37727051 124.16520264 -14.02260742 125.09969238 -14.6875 126.0625 C-21.20312695 135.46422825 -27.84054601 144.76732728 -34.56542969 154.02001953 C-36.72607451 157.00212122 -38.86398465 160.00023128 -41 163 C-44.76742136 168.28852542 -48.56707232 173.55307988 -52.375 178.8125 C-57.1334591 185.38742007 -61.83925344 191.99675819 -66.50195312 198.63989258 C-68.92547648 202.08618366 -71.36658631 205.51537351 -73.8671875 208.90625 C-84.72380261 223.65556835 -94.75735104 238.95992508 -104.84002686 254.24310303 C-105.85388829 255.77869899 -106.87033114 257.31258996 -107.88720703 258.84619141 C-145.47828475 315.56275738 -172.62064145 379.1441328 -159.78540039 448.23657227 C-150.93284232 491.77726442 -126.19438363 531.42968914 -89.02636719 556.32177734 C-53.71439163 579.52044596 -13.89746047 590.21766953 28.1875 590.25 C28.98068634 590.25067474 29.77387268 590.25134949 30.59109497 590.25204468 C79.87069963 590.18578784 129.37421146 575.02128802 166 541 C166.60440918 540.43941895 167.20881836 539.87883789 167.83154297 539.30126953 C177.05677737 530.64070135 185.02237349 521.55825064 192 511 C192.59071289 510.11175537 192.59071289 510.11175537 193.19335938 509.20556641 C210.63170525 482.58799072 220.14907785 450.7800926 221 419 C221.03996094 417.71738281 221.07992188 416.43476563 221.12109375 415.11328125 C221.87049151 379.40045566 212.6862258 344.91257174 197 313 C196.50258301 311.98599121 196.00516602 310.97198242 195.49267578 309.92724609 C176.27290171 271.10969938 151.20738117 235.72420096 125.85351562 200.72729492 C122.19831033 195.67736897 118.5858255 190.59938086 115 185.5 C110.891737 179.65994822 106.74649328 173.84855438 102.5625 168.0625 C102.02020752 167.31250732 101.47791504 166.56251465 100.91918945 165.78979492 C98.23475771 162.08033317 95.54543705 158.37448389 92.8515625 154.671875 C86.08636902 145.35873791 79.45251789 135.96242051 72.90698242 126.4934082 C72.28412354 125.59323975 71.66126465 124.69307129 71.01953125 123.765625 C70.42442749 122.87875504 69.82932373 121.99188507 69.21618652 121.07814026 C67.06020536 117.95642146 67.06020536 117.95642146 64.45429993 115.22232056 C54.94387081 104.53957135 55.69610365 93.57241998 56.0234375 79.8828125 C56.04212305 77.57114747 56.05634142 75.25944243 56.0663147 72.94772339 C56.10422727 66.90675659 56.20221826 60.86825116 56.31335449 54.82824707 C56.41624038 48.6475554 56.46144842 42.46646015 56.51171875 36.28515625 C56.61848958 24.18903146 56.78882673 12.09472157 57 0 C60.41904435 3.35476183 63.24152157 6.57182134 65.86328125 10.5859375 C66.57693848 11.6697168 67.2905957 12.75349609 68.02587891 13.87011719 C68.58435516 14.72639709 68.58435516 14.72639709 69.15411377 15.59997559 C71.14526102 18.6510607 73.15726543 21.68834386 75.16796875 24.7265625 C75.57523193 25.34273437 75.98249512 25.95890625 76.40209961 26.59375 C82.11791318 35.22388766 88.07318532 43.68754588 94.01464844 52.16308594 C96.75296991 56.07593585 99.47602807 59.99931329 102.19970703 63.92236328 C108.94491803 73.63617393 115.7302273 83.32032786 122.56445312 92.97167969 C124.54250271 95.76651574 126.51681721 98.56398061 128.4909668 101.36157227 C129.49480618 102.78409761 130.49887422 104.20646164 131.50317383 105.62866211 C133.99345674 109.15524625 136.48145333 112.68340198 138.96484375 116.21484375 C144.07232239 123.47235328 149.22058937 130.69569352 154.4375 137.875 C159.48289499 144.82579662 164.37236021 151.87089436 169.20166016 158.97314453 C172.69070575 164.10039706 176.22561652 169.19075285 179.8125 174.25 C200.7827155 203.87620006 221.57391685 233.79541973 238.80712891 265.79492188 C239.99555253 267.99177865 241.20560545 270.17565743 242.41796875 272.359375 C257.63559886 300.10613666 268.74638259 329.97563234 275 361 C275.19609863 361.92184082 275.39219727 362.84368164 275.59423828 363.79345703 C281.98950195 394.82852643 281.84096444 430.06467982 275 461 C274.67854004 462.47484863 274.67854004 462.47484863 274.35058594 463.97949219 C265.53399222 503.16007535 247.39003846 538.59676723 220 568 C218.78661781 569.39144666 217.57802197 570.78708639 216.375 572.1875 C210.68476787 578.68319878 204.60744222 584.28068321 197.8671875 589.6875 C196.03902199 591.16198772 194.22933417 592.65989735 192.4453125 594.1875 C148.13060517 631.90214453 86.92713543 649.28789884 29.5625 649.1875 C28.51494537 649.18609512 28.51494537 649.18609512 27.44622803 649.18466187 C-16.59661393 649.05751523 -59.07527492 638.73560121 -98 618 C-98.9178125 617.5359375 -99.835625 617.071875 -100.78125 616.59375 C-113.6636208 609.91975067 -125.96755485 601.39929579 -137 592 C-138.10777114 591.07646082 -139.21586868 590.15331306 -140.32421875 589.23046875 C-151.65747529 579.72809988 -161.85532551 569.670651 -171 558 C-171.77859375 557.03835938 -172.5571875 556.07671875 -173.359375 555.0859375 C-197.55568604 524.64790291 -212.86986849 488.34403405 -219 450 C-219.18401367 448.85168701 -219.36802734 447.70337402 -219.55761719 446.52026367 C-221.21600166 434.91822362 -221.39866689 423.39412531 -221.375 411.6875 C-221.37445618 410.67354156 -221.37391235 409.65958313 -221.37335205 408.61489868 C-221.33344861 392.40117201 -220.40156293 376.90002597 -217 361 C-216.79101074 359.97326172 -216.58202148 358.94652344 -216.36669922 357.88867188 C-204.44914489 300.22020674 -173.57755357 250.12328959 -141 202 C-140.3611084 201.05543945 -139.7222168 200.11087891 -139.06396484 199.13769531 C-131.41633827 187.85191913 -123.60584122 176.68084227 -115.77050781 165.52490234 C-113.99637018 162.99482355 -112.2277972 160.46094687 -110.4609375 157.92578125 C-104.32900168 149.13265657 -98.13343096 140.39467225 -91.82836914 131.72485352 C-87.912891 126.31867182 -84.12375396 120.83531685 -80.375 115.3125 C-76.57563102 109.71535611 -72.72182146 104.18038222 -68.6875 98.75 C-61.90793635 89.61859882 -55.48235136 80.24127064 -49.0078125 70.89257812 C-45.91618377 66.4385877 -42.80150364 62.00085992 -39.6875 57.5625 C-31.9279042 46.48564479 -24.262731 35.34953491 -16.68359375 24.1484375 C-16.20923386 23.4475148 -15.73487396 22.7465921 -15.24613953 22.02442932 C-12.82750512 18.45008186 -10.41046116 14.87467376 -7.99584961 11.29760742 C-7.09881774 9.97052538 -6.20176464 8.64345769 -5.3046875 7.31640625 C-4.88541489 6.69426239 -4.46614227 6.07211853 -4.03416443 5.43112183 C-1.11315633 1.11315633 -1.11315633 1.11315633 0 0 Z " fill="#00C4E3" transform="translate(221,0)"/>
</svg>
